<svg width="40" height="40" viewBox="0 0 40 40" fill="none" xmlns="http://www.w3.org/2000/svg">
<path d="M39.9994 7.02105C40.0117 6.09105 39.8365 5.16814 39.4843 4.30758C39.132 3.44702 38.61 2.66654 37.9495 2.01287C36.6044 0.721168 34.813 0 32.9496 0C31.0863 0 29.2949 0.721168 27.9498 2.01287L11.4504 18.5399H10.9004C8.06915 18.616 5.37518 19.7783 3.37477 21.7867C1.37436 23.7952 0.220272 26.4963 0.150806 29.3325L0.000811146 37.4958C-0.00778496 37.8338 0.0520173 38.17 0.176614 38.4841C0.30121 38.7983 0.48802 39.0839 0.725785 39.3238C1.21246 39.7632 1.84557 40.0043 2.50072 39.9999L10.6504 39.8497C13.4819 39.7801 16.1785 38.6241 18.1836 36.6203C20.1887 34.6166 21.349 31.9181 21.4251 29.0821V28.5062L37.9495 11.9792C38.6062 11.3331 39.1262 10.5611 39.4784 9.70918C39.8306 8.8573 40.0078 7.94305 39.9994 7.02105ZM10.6254 34.8415L5.00063 34.9918V29.4076C5.02687 27.8312 5.67055 26.3281 6.7929 25.2227C7.91525 24.1172 9.42635 23.4978 11.0004 23.498C11.7147 23.4979 12.4219 23.6404 13.0806 23.9172C13.7393 24.194 14.3364 24.5995 14.8368 25.1101C15.3372 25.6207 15.731 26.2261 15.9952 26.8909C16.2593 27.5557 16.3885 28.2665 16.3752 28.9819C16.3385 30.5073 15.7239 31.9615 14.6561 33.0496C13.5883 34.1378 12.1474 34.7784 10.6254 34.8415ZM34.4246 8.42334L19.7501 23.1224C19.3661 22.5498 18.931 22.0134 18.4502 21.5197C17.9638 21.0308 17.4275 20.5944 16.8502 20.2176L31.5247 5.54364C31.9153 5.17013 32.4346 4.96173 32.9746 4.96173C33.5147 4.96173 34.034 5.17013 34.4246 5.54364C34.6146 5.7386 34.7634 5.96989 34.8622 6.22373C34.961 6.47756 35.0077 6.74873 34.9996 7.02105C35.0005 7.28118 34.9502 7.53893 34.8515 7.77955C34.7528 8.02018 34.6078 8.23895 34.4246 8.42334Z" fill="url(#paint0_linear_104_91)"/>
<defs>
<linearGradient id="paint0_linear_104_91" x1="40" y1="40" x2="-19.4638" y2="35.9035" gradientUnits="userSpaceOnUse">
<stop stop-color="#378562"/>
<stop offset="1" stop-color="#184A45"/>
</linearGradient>
</defs>
</svg>
