<svg width="66" height="66" viewBox="0 0 66 66" fill="none" xmlns="http://www.w3.org/2000/svg">
<path fill-rule="evenodd" clip-rule="evenodd" d="M33.5 20C26.0469 20 20 26.0469 20 33.5C20 40.9531 26.0469 47 33.5 47C40.9385 47 47 40.9531 47 33.5C47 26.0469 40.9385 20 33.5 20ZM42.4168 26.2224C44.0789 28.2466 44.9987 30.7785 45.0234 33.3976C44.6431 33.3245 40.8361 32.5482 36.9999 33.032C36.911 32.8407 36.8379 32.636 36.7501 32.4313C36.5115 31.8681 36.2579 31.3114 35.9896 30.7618C40.2354 29.0338 42.1681 26.5453 42.4168 26.2224ZM33.5 21.9924C36.4284 21.9924 39.1081 23.0893 41.1433 24.8904C40.9385 25.1829 39.1959 27.5116 35.0964 29.0484C33.2064 25.5789 31.1139 22.7371 30.791 22.2984C31.679 22.091 32.5881 21.988 33.5 21.9912V21.9924ZM28.595 23.0746C28.9021 23.4853 30.9519 26.3405 32.87 29.7369C27.4812 31.1724 22.7225 31.1431 22.2106 31.1431C22.9576 27.5701 25.3741 24.5979 28.595 23.0746ZM21.962 33.5146V33.1636C22.4604 33.1783 28.0527 33.2514 33.8083 31.5234C34.1446 32.168 34.4518 32.8261 34.7443 33.4854C34.598 33.5293 34.4371 33.5731 34.2909 33.617C28.3464 35.5351 25.1829 40.7765 24.9196 41.2164C23.0155 39.1031 21.9618 36.3592 21.962 33.5146ZM33.5 45.038C30.9373 45.042 28.4472 44.1864 26.4283 42.608C26.633 42.1828 28.9753 37.6726 35.4766 35.4035C35.5059 35.3889 35.5216 35.3889 35.5497 35.3743C37.1754 39.5761 37.8335 43.1053 38.0101 44.1155C36.6185 44.7163 35.0964 45.038 33.5 45.038ZM39.9283 43.0614C39.8113 42.3583 39.1959 38.9911 37.6872 34.8466C41.3041 34.2762 44.4665 35.2134 44.8625 35.345C44.3641 38.5513 42.5191 41.3188 39.9283 43.0614Z" fill="url(#paint0_linear_9_31)"/>
<circle cx="33" cy="33" r="29" stroke="url(#paint1_linear_9_31)" stroke-width="2"/>
<defs>
<linearGradient id="paint0_linear_9_31" x1="47" y1="47" x2="6.86195" y2="44.2348" gradientUnits="userSpaceOnUse">
<stop stop-color="#378562"/>
<stop offset="1" stop-color="#184A45"/>
</linearGradient>
<linearGradient id="paint1_linear_9_31" x1="63" y1="63" x2="-26.1957" y2="56.8552" gradientUnits="userSpaceOnUse">
<stop stop-color="#378562"/>
<stop offset="1" stop-color="#184A45"/>
</linearGradient>
</defs>
</svg>
