<svg width="44" height="40" viewBox="0 0 44 40" fill="none" xmlns="http://www.w3.org/2000/svg">
<path d="M11.8255 30.3765L14.5753 26.9871L5.72296 20.0022L14.5753 13.0173L11.8255 9.62786L0.825993 18.3075C0.568265 18.5108 0.360205 18.7686 0.217223 19.062C0.0742405 19.3553 0 19.6767 0 20.0022C0 20.3277 0.0742405 20.649 0.217223 20.9424C0.360205 21.2357 0.568265 21.4936 0.825993 21.6969L11.8255 30.3765ZM32.1745 9.62786L29.4247 13.0173L38.277 20.0022L29.4247 26.9871L32.1745 30.3765L43.174 21.6969C43.4317 21.4936 43.6398 21.2357 43.7828 20.9424C43.9258 20.649 44 20.3277 44 20.0022C44 19.6767 43.9258 19.3553 43.7828 19.062C43.6398 18.7686 43.4317 18.5108 43.174 18.3075L32.1745 9.62786ZM28.5469 0.941738L19.7473 40L15.4509 39.0583L24.2505 0L28.5469 0.941738Z" fill="url(#paint0_linear_11_14)"/>
<defs>
<linearGradient id="paint0_linear_11_14" x1="44" y1="40" x2="-21.3453" y2="35.0481" gradientUnits="userSpaceOnUse">
<stop stop-color="#378562"/>
<stop offset="1" stop-color="#184A45"/>
</linearGradient>
</defs>
</svg>
