<svg width="140" height="149" viewBox="0 0 140 149" fill="none" xmlns="http://www.w3.org/2000/svg">
<g clip-path="url(#clip0_3_4)">
<path d="M139.871 39.0802C139.943 38.4558 139.983 37.8282 139.992 37.1998C139.992 37.1998 139.992 37.1274 139.992 37.0873C139.992 36.7015 139.992 36.3238 139.992 35.9461C139.976 35.6232 139.944 35.3013 139.895 34.9818C139.883 34.9193 139.867 34.8575 139.847 34.7969C139.847 34.58 139.758 34.371 139.71 34.1621C139.662 33.9531 139.654 33.8647 139.605 33.7201C139.557 33.5754 139.557 33.6076 139.533 33.5433C139.477 33.3767 139.412 33.2131 139.339 33.0531C139.283 32.9245 139.243 32.7798 139.186 32.6593C139.13 32.5387 139.098 32.5227 139.065 32.4503C139.033 32.378 138.888 32.145 138.792 32.0003C138.695 31.8557 138.679 31.7833 138.606 31.6869C138.534 31.5905 138.397 31.4056 138.284 31.269C138.186 31.1481 138.081 31.0327 137.97 30.9235L137.865 30.827L107.356 1.96887C107.501 2.10549 107.638 2.25818 107.775 2.41086C107.912 2.56355 108.122 2.89304 108.283 3.14216C108.444 3.39129 108.468 3.43951 108.549 3.59219C108.629 3.74488 108.742 3.99401 108.831 4.19491C108.919 4.39582 108.968 4.51636 109.024 4.68512C109.08 4.85388 109.145 5.09497 109.193 5.30391C109.242 5.51286 109.298 5.7218 109.338 5.93878C109.41 6.31836 109.455 6.70228 109.475 7.08796C109.475 7.49781 109.475 7.89158 109.475 8.34161C109.475 8.9604 109.427 9.58723 109.362 10.2221C109.362 10.3667 109.362 10.5194 109.298 10.6641C109.234 11.1998 109.145 11.7356 109.032 12.2713C108.984 12.5205 108.943 12.7615 108.879 13.0187C108.485 14.7137 107.971 16.3787 107.34 18.0012C107.002 18.8611 106.631 19.7852 106.245 20.7496L96.4161 11.4677C95.4977 10.5998 94.0208 10.4712 91.9853 11.082C91.3764 11.2644 90.7815 11.49 90.2049 11.757H90.084C89.7215 11.9338 89.3751 12.1106 89.0448 12.3115L88.9159 12.3919L88.7628 12.4964L88.3278 12.7696C88.1344 12.9062 87.9491 13.0428 87.7638 13.1955L87.5786 13.3482L87.4819 13.4286L87.2805 13.6054C87.1193 13.742 86.9743 13.8866 86.8213 14.0393C86.6682 14.192 86.5232 14.3447 86.3862 14.5054C86.1929 14.7224 86.0076 14.9474 85.8304 15.1724L85.5001 15.6385C85.4437 15.7189 85.3873 15.7912 85.3389 15.8716C85.2906 15.9519 85.2664 15.96 85.2342 16.0162C85.202 16.0725 85.0489 16.3457 84.9522 16.5145C84.8556 16.6832 84.63 17.0529 84.493 17.3181L84.4125 17.4628C84.2916 17.7119 84.195 17.9771 84.0902 18.2664C83.9855 18.5557 83.9533 18.5798 83.8969 18.7325C83.7238 19.2229 83.5759 19.7218 83.4538 20.2272C83.4538 20.3799 83.3813 20.5326 83.3491 20.6772C83.2927 20.9505 83.2604 21.1916 83.2121 21.4809C83.1638 21.7702 83.1477 21.8104 83.1235 21.963C83.059 22.4372 83.0107 22.8792 82.9946 23.289C82.9946 23.4658 82.9946 23.6346 82.9946 23.7953C82.9946 23.956 82.9946 23.9882 82.9946 24.0846C82.9946 24.382 82.9946 24.6632 83.051 24.9365C83.051 25.0249 83.051 25.1213 83.051 25.2017C83.051 25.282 83.0993 25.491 83.1315 25.6276C83.1638 25.7642 83.2363 26.0856 83.3007 26.3026C83.3007 26.3589 83.3007 26.3991 83.3571 26.4473C83.4377 26.6723 83.5263 26.8812 83.6149 27.0902C83.6552 27.1786 83.6874 27.275 83.7277 27.3634L83.8083 27.5322C84.1285 28.1594 84.4836 28.7685 84.8717 29.3564L95.0627 42.5037C95.4816 43.1225 95.8683 43.7332 96.2147 44.352L96.537 44.9467C96.7733 45.3753 96.9908 45.8012 97.1895 46.2245L97.4876 46.8834C97.6649 47.3013 97.826 47.6871 97.979 48.1291C98.0596 48.346 98.1402 48.563 98.2127 48.788C98.4152 49.368 98.5873 49.9581 98.7283 50.556C98.878 51.1803 98.9857 51.8139 99.0505 52.4526C99.0505 52.5892 99.0505 52.7178 99.0908 52.8463C99.1488 53.4848 99.1704 54.1261 99.1553 54.767C99.1553 55.1206 99.1553 55.4822 99.0827 55.8439C99.0102 56.2055 99.0344 56.6957 98.978 57.1377C98.9216 57.5797 98.8572 57.8368 98.8008 58.1904L75.9213 36.5408C76.0902 36.7051 76.2489 36.8796 76.3966 37.0631C76.569 37.2903 76.7251 37.5293 76.8639 37.7784C76.9283 37.8909 77.0008 37.9873 77.0572 38.0998C77.1797 38.3614 77.2873 38.6297 77.3794 38.9035C77.3794 38.9918 77.46 39.0802 77.4842 39.1686C77.5083 39.257 77.5808 39.5624 77.6292 39.7633C77.6775 39.9642 77.742 40.1893 77.7742 40.4223C77.8446 40.8691 77.8849 41.3202 77.895 41.7724C77.895 42.1019 77.895 42.4394 77.895 42.785C77.895 43.4761 77.8386 44.1833 77.75 44.9226C77.75 44.9949 77.75 45.0753 77.75 45.1476C77.6614 45.8468 77.5325 46.562 77.3794 47.2933C77.3231 47.6067 77.2666 47.904 77.1941 48.2255C76.7833 49.9774 76.316 51.6329 75.7924 53.1597C75.5668 53.8428 75.301 54.5741 74.9868 55.3215L64.8843 45.7584C64.5164 45.4589 64.0726 45.2667 63.6021 45.2029C63.1316 45.1391 62.6525 45.2062 62.2177 45.3967C61.7221 45.5479 61.2376 45.7332 60.7676 45.9512L60.6468 46.0155L60.4615 46.112L60.3004 46.1923L48.2484 34.7246L46.7419 62.5541L37.4531 53.7785L36.9375 53.9393L21.663 96.3787L28.6235 102.968L18.0377 106.127L12.4709 121.395L0 125.116L20.3338 144.355L32.7966 140.634L38.3715 125.365L39.9827 124.875L63.2489 146.895C63.3754 147.018 63.51 147.134 63.6517 147.24C64.6843 148.066 65.909 148.619 67.2126 148.847C68.5671 149.076 69.9506 149.076 71.3051 148.847C72.6662 148.626 74.0117 148.317 75.3332 147.923C76.0824 147.698 76.8155 147.441 77.5325 147.176C77.7742 147.087 77.9998 146.983 78.2253 146.895C78.7087 146.702 79.184 146.501 79.6432 146.292C79.7318 146.252 79.8285 146.219 79.9171 146.171C80.0057 146.123 80.1508 146.043 80.2797 145.986C80.9403 145.665 81.5848 145.319 82.2212 144.958L82.5757 144.765C82.6401 144.765 82.6965 144.685 82.761 144.644C83.1315 144.427 83.478 144.194 83.8324 143.953C84.0258 143.833 84.2272 143.712 84.4125 143.584L84.5494 143.479C84.7589 143.334 84.9522 143.182 85.1536 143.029C85.355 142.876 85.6531 142.667 85.8948 142.475C85.9709 142.417 86.0435 142.356 86.1123 142.29C86.2896 142.153 86.4587 142 86.636 141.856C86.8132 141.711 87.0227 141.534 87.208 141.366L87.5463 141.044L88.0619 140.554L88.4325 140.2C88.7064 139.927 88.9723 139.646 89.2381 139.397C89.367 139.252 89.504 139.107 89.6329 138.955C89.7618 138.802 90.0276 138.481 90.229 138.239C90.4304 137.998 90.5271 137.886 90.6721 137.701L90.7849 137.556C90.9219 137.388 91.0427 137.195 91.1716 137.018C91.4455 136.648 91.7194 136.279 91.9772 135.893L92.1303 135.676C92.2753 135.451 92.4122 135.21 92.5492 134.977C92.6862 134.744 92.9037 134.406 93.0728 134.109C93.242 133.811 93.4354 133.442 93.6126 133.112C93.7898 132.783 93.9349 132.502 94.0879 132.188L94.2088 131.963C94.3457 131.666 94.4746 131.352 94.6116 131.047C94.7485 130.742 94.8694 130.484 94.9902 130.195C95.1594 129.785 95.3205 129.351 95.4736 128.925C95.5783 128.644 95.6911 128.371 95.7958 128.122C95.957 127.64 96.11 127.141 96.2631 126.643L96.5048 125.896C96.725 125.14 96.9264 124.361 97.109 123.557L98.8813 116.003L97.5279 114.725C100.152 114.692 102.755 114.256 105.246 113.432C106.051 113.199 106.857 112.925 107.614 112.628C107.872 112.532 108.114 112.419 108.372 112.315C108.887 112.114 109.403 111.897 109.902 111.664L110.192 111.543C110.321 111.487 110.442 111.406 110.579 111.342C111.384 110.964 112.093 110.539 112.835 110.145C112.947 110.08 113.076 110.024 113.189 109.952L113.584 109.719C114.18 109.349 114.768 108.963 115.34 108.562L115.405 108.521C115.767 108.264 116.113 107.991 116.468 107.718C116.822 107.445 116.943 107.372 117.169 107.187H117.209C117.362 107.067 117.507 106.938 117.652 106.81C118.023 106.512 118.393 106.207 118.74 105.894L118.845 105.797L119.368 105.299C119.642 105.042 119.916 104.793 120.174 104.495L120.52 104.134C120.883 103.772 121.229 103.394 121.567 103.009C121.64 102.928 121.704 102.832 121.785 102.751L122.478 101.908C122.639 101.707 122.808 101.522 122.961 101.321C123.026 101.241 123.074 101.152 123.138 101.08C123.517 100.574 123.88 100.059 124.234 99.5369C124.323 99.4003 124.427 99.2717 124.516 99.1431C124.53 99.1109 124.549 99.081 124.572 99.0547C124.991 98.4038 125.378 97.7368 125.773 97.0537C126.168 96.3706 126.393 95.9126 126.667 95.3259V95.2295C127.102 94.3134 127.473 93.3811 127.827 92.4329C127.908 92.2079 127.98 91.9909 128.053 91.7659C128.392 90.7926 128.683 89.8029 128.923 88.8005L129.044 88.2621C129.124 87.9004 129.156 87.5549 129.221 87.1932C129.285 86.8316 129.366 86.3896 129.414 86.036C129.463 85.6824 129.495 85.1761 129.527 84.7502C129.559 84.3243 129.591 84.0189 129.599 83.6653C129.599 83.6091 129.599 83.5448 129.599 83.4805C129.599 82.8858 129.599 82.3152 129.527 81.7447L129.479 81.3509C129.479 81.15 129.479 80.9491 129.414 80.7562C129.35 80.3142 129.269 79.8803 129.164 79.4543C129.06 79.0284 128.923 78.5141 128.778 78.048C128.737 77.9275 128.689 77.8069 128.649 77.6783C128.609 77.5498 128.496 77.2444 128.415 77.0194C128.262 76.6095 128.093 76.2157 127.916 75.7818C127.819 75.5648 127.73 75.3398 127.626 75.1228C127.521 74.9058 127.521 74.8737 127.457 74.7531C127.312 74.4478 127.134 74.1504 126.965 73.845C126.796 73.5397 126.764 73.4513 126.651 73.2504C126.296 72.6316 125.91 72.0208 125.499 71.402L115.308 58.2547C114.917 57.6686 114.562 57.0594 114.244 56.4305C114.172 56.2858 114.116 56.1412 114.051 55.9965C113.953 55.7844 113.867 55.5671 113.793 55.3456C113.699 55.0827 113.621 54.8143 113.56 54.542C113.511 54.325 113.495 54.0839 113.463 53.8509C113.431 53.6178 113.415 53.2964 113.407 52.999C113.399 52.7017 113.407 52.4847 113.407 52.1954C113.428 51.7512 113.473 51.3085 113.544 50.8694C113.544 50.7167 113.6 50.548 113.632 50.3872C113.697 49.9935 113.769 49.5836 113.866 49.1657C113.986 48.6588 114.136 48.1597 114.317 47.671C114.373 47.5103 114.446 47.3656 114.502 47.2049C114.631 46.8915 114.76 46.5861 114.913 46.2807C115.066 45.9753 115.211 45.7343 115.372 45.4771C115.533 45.2199 115.566 45.1315 115.67 44.9708L126.305 54.8634L135.779 52.0266C136.584 50.1381 137.237 48.4184 137.857 46.8513C138.489 45.2292 139.003 43.5642 139.396 41.8688L139.492 41.4268C139.492 41.3224 139.492 41.2259 139.549 41.1215C139.654 40.583 139.742 40.0446 139.815 39.5142C139.831 39.3776 139.855 39.2249 139.871 39.0802ZM43.9061 110.257L44.1317 110.474L44.0511 111.977L43.7772 112.057L43.3905 111.688L43.9061 110.257Z" fill="url(#paint0_linear_3_4)"/>
<path d="M109.475 7.08793C109.441 5.38454 108.844 3.74015 107.775 2.41083C106.535 1.08162 104.844 0.259614 103.03 0.104433C100.882 -0.200944 98.0247 0.179436 94.4585 1.24558C91.5638 2.10018 88.8012 3.34958 86.2493 4.95832C81.3142 8.0505 77.265 12.3637 74.4953 17.4788C73.1345 19.9456 72.1207 22.5875 71.4823 25.3302C70.7027 28.2643 70.568 31.3319 71.0876 34.3228C71.0876 34.4835 71.1762 34.6442 71.2165 34.813C68.8754 34.7999 66.5482 35.1719 64.3285 35.9139C62.9445 36.338 61.5838 36.8342 60.252 37.4006C58.6346 38.0919 57.0863 38.9341 55.6278 39.916C53.8978 41.0854 52.2797 42.4117 50.7941 43.8779C49.6235 45.023 48.546 46.2591 47.5716 47.5745L48.2645 34.7165L34.0937 38.9516L0 125.132L12.4709 121.412L18.0377 106.143L30.6215 102.382C30.2987 104.207 30.0996 106.051 30.0253 107.903C29.8895 110.161 30.1346 112.427 30.7504 114.605C31.1538 116.086 31.9962 117.411 33.1672 118.406C34.1977 119.23 35.4194 119.783 36.72 120.013C38.0769 120.246 39.4637 120.246 40.8206 120.013C42.1816 119.791 43.527 119.482 44.8487 119.089C50.1717 117.537 54.9686 114.563 58.7214 110.49C62.4272 106.478 65.0535 101.187 66.6003 94.6187L68.3727 87.0566L57.094 90.4157L55.2169 98.4038C54.8767 99.9147 54.3771 101.386 53.7266 102.792C53.1763 103.979 52.5012 105.105 51.7125 106.151C51.0464 107.023 50.2599 107.797 49.3762 108.449C48.6461 108.992 47.8289 109.408 46.9594 109.679C46.0353 110.004 45.048 110.112 44.0753 109.992L45.1226 90.6006L52.1153 61.1317C52.6334 58.8625 53.2981 56.6291 54.1052 54.4455C54.7062 52.8253 55.4786 51.2736 56.4092 49.8166C57.1208 48.6966 58.0233 47.7093 59.0758 46.8995C60.0277 46.209 61.0901 45.6846 62.2177 45.3485C64.1083 44.786 65.2845 45.4717 65.7463 47.4058C66.2055 49.3425 65.8994 52.565 64.8521 57.0493L63.8693 61.212L73.8267 58.2386C74.6001 56.3528 75.2446 54.6411 75.7602 53.1035C76.2838 51.5766 76.7511 49.889 77.1619 48.1692C77.3472 47.3656 77.4922 46.562 77.605 45.8387L83.4457 53.1517C84.1643 54.1127 84.7926 55.1376 85.3228 56.2135C85.7638 57.1054 86.0861 58.051 86.2815 59.0262C86.4635 59.9819 86.5149 60.9578 86.4346 61.9273C86.3308 63.0865 86.1396 64.2362 85.8626 65.3668C85.3755 67.684 84.2802 69.8305 82.6885 71.5868C81.1162 73.2772 79.1059 74.5009 76.88 75.1228C75.7434 75.5535 74.5048 75.6401 73.3191 75.3719C72.8783 75.2312 72.4788 74.9847 72.1557 74.654C71.8326 74.3233 71.5959 73.9186 71.4662 73.4753C71.0953 72.2168 70.9856 70.8961 71.144 69.5938C71.3191 67.6653 71.6396 65.7526 72.1027 63.872L73.0372 59.9102L63.5067 62.755C62.7011 64.6033 62.0083 66.2909 61.4524 67.8419C60.8808 69.4616 60.3994 71.1116 60.0104 72.7842C59.5209 74.7815 59.3148 76.8374 59.3981 78.8918C59.3767 79.7735 59.5306 80.6506 59.8509 81.4727C60.1712 82.2947 60.6516 83.0453 61.2643 83.6812C61.877 84.317 62.6099 84.8255 63.4206 85.1772C64.2314 85.529 65.104 85.7171 65.988 85.7306C68.1793 85.9985 71.1064 85.5833 74.7692 84.485C80.5871 82.7563 85.8593 79.5592 90.076 75.2031C92.1265 73.0768 93.8921 70.6943 95.3286 68.1152C96.7841 65.5278 97.8688 62.7497 98.551 59.8619C99.3666 56.809 99.4522 53.6077 98.8008 50.5158C98.0821 47.6359 96.8397 44.912 95.1352 42.4795L84.8797 29.3242C84.4929 28.7493 84.1379 28.1538 83.8163 27.5402C83.5038 26.9395 83.276 26.2985 83.1396 25.6356C82.9856 24.8662 82.9341 24.0799 82.9865 23.297C83.0454 22.2752 83.1991 21.2609 83.4457 20.2674C83.9281 18.1503 84.9365 16.1882 86.3782 14.5616C87.8861 12.8899 89.8434 11.685 92.0175 11.09C94.813 10.2864 96.5451 10.8087 97.2379 12.7535C97.9307 14.6982 97.7615 17.8485 96.7465 22.18L95.7797 26.0133L105.262 23.1845C106.067 21.288 106.72 19.5682 107.332 18.0092C107.963 16.3867 108.477 14.7217 108.871 13.0267C109.358 11.0864 109.561 9.08621 109.475 7.08793ZM36.9697 53.9392L37.4853 53.7785L34.2629 86.1967L32.6516 93.0918L21.663 96.3786L36.9697 53.9392Z" fill="url(#paint1_linear_3_4)"/>
</g>
<defs>
<linearGradient id="paint0_linear_3_4" x1="-32.7564" y1="39.6508" x2="236.047" y2="133.381" gradientUnits="userSpaceOnUse">
<stop stop-color="#3A5051"/>
<stop offset="1"/>
</linearGradient>
<linearGradient id="paint1_linear_3_4" x1="-7.66947" y1="130.926" x2="121.114" y2="-3.53309" gradientUnits="userSpaceOnUse">
<stop offset="0.01" stop-color="#2C6A4E"/>
<stop offset="1" stop-color="#7BAFC9"/>
</linearGradient>
<clipPath id="clip0_3_4">
<rect width="140" height="149" fill="white"/>
</clipPath>
</defs>
</svg>
